<svg width="16" height="16" viewBox="0 0 16 16" fill="none" xmlns="http://www.w3.org/2000/svg">
  <g clip-path="url(#clip0_3056_239242)">
    <path
      d="M4.55528 4.60106L2.78778 3.46856C2.75215 3.44672 2.72193 3.41709 2.69939 3.38189C2.67685 3.3467 2.66258 3.30685 2.65765 3.26535C2.65271 3.22385 2.65725 3.18177 2.67091 3.14227C2.68458 3.10278 2.70701 3.06689 2.73653 3.03731L3.40028 2.37356C3.52778 2.24606 3.74278 2.27356 3.83403 2.42981L4.93903 4.22606C5.08403 4.47356 4.80028 4.75106 4.55528 4.60106ZM3.01028 10.0486L0.957783 10.0898C0.916048 10.0907 0.875061 10.1011 0.8379 10.1201C0.800739 10.1391 0.768371 10.1663 0.743229 10.1996C0.718086 10.2329 0.700822 10.2715 0.692734 10.3125C0.684647 10.3534 0.685945 10.3957 0.696533 10.4361L0.935283 11.3436C0.981533 11.5186 1.18028 11.6023 1.33778 11.5148L3.15153 10.5661C3.40153 10.4248 3.29778 10.0423 3.01028 10.0486ZM7.77778 13.5348L7.32778 15.5336C7.28653 15.7073 7.41778 15.8748 7.59653 15.8748H8.53528C8.71653 15.8748 8.84778 15.7036 8.80278 15.5286L8.31403 13.5298C8.24153 13.2511 7.84528 13.2548 7.77778 13.5348ZM11.4403 4.60106L13.2078 3.46856C13.3603 3.37481 13.3853 3.16356 13.259 3.03731L12.5953 2.37356C12.5654 2.34376 12.529 2.32121 12.489 2.30764C12.449 2.29407 12.4065 2.28984 12.3646 2.29527C12.3227 2.3007 12.2827 2.31565 12.2475 2.33897C12.2123 2.36229 12.1829 2.39336 12.1615 2.42981L11.0565 4.22606C10.9115 4.47356 11.1953 4.75106 11.4403 4.60106ZM12.9853 10.0486L15.0378 10.0898C15.0795 10.0907 15.1205 10.1011 15.1577 10.1201C15.1948 10.1391 15.2272 10.1663 15.2523 10.1996C15.2775 10.2329 15.2947 10.2715 15.3028 10.3125C15.3109 10.3534 15.3096 10.3957 15.299 10.4361L15.0603 11.3436C15.0495 11.3843 15.0295 11.4221 15.0019 11.454C14.9743 11.4859 14.9397 11.5111 14.9009 11.5276C14.8621 11.5441 14.82 11.5515 14.7779 11.5493C14.7357 11.5471 14.6947 11.5353 14.6578 11.5148L12.844 10.5661C12.594 10.4248 12.6978 10.0423 12.9853 10.0486Z"
      fill="#F49B00"
      style="fill:#F49B00;fill:color(display-p3 0.9569 0.6060 0.0000);fill-opacity:1;" />
    <g clip-path="url(#paint0_diamond_3056_239242_clip_path)" data-figma-skip-parse="true">
      <g transform="matrix(-0.0035 0.0045 -0.00471288 -0.00366558 8 8.5)">
        <rect x="0" y="0" width="1933.63" height="1834.32" fill="url(#paint0_diamond_3056_239242)"
          opacity="1" shape-rendering="crispEdges" />
        <rect x="0" y="0" width="1933.63" height="1834.32" transform="scale(1 -1)"
          fill="url(#paint0_diamond_3056_239242)" opacity="1" shape-rendering="crispEdges" />
        <rect x="0" y="0" width="1933.63" height="1834.32" transform="scale(-1 1)"
          fill="url(#paint0_diamond_3056_239242)" opacity="1" shape-rendering="crispEdges" />
        <rect x="0" y="0" width="1933.63" height="1834.32" transform="scale(-1)"
          fill="url(#paint0_diamond_3056_239242)" opacity="1" shape-rendering="crispEdges" />
      </g>
    </g>
    <path
      d="M8.50605 0.90375L10.1885 4.74125C10.2519 4.88565 10.3528 5.01041 10.4807 5.10254C10.6087 5.19466 10.759 5.25076 10.916 5.265L15.0148 5.6325C15.4785 5.7 15.6635 6.26875 15.3273 6.59625L12.2398 9.19C11.9898 9.4 11.876 9.73 11.9448 10.0487L12.8423 14.25C12.921 14.7113 12.4373 15.0638 12.0223 14.845L8.4448 12.75C8.30988 12.6708 8.15626 12.629 7.9998 12.629C7.84334 12.629 7.68971 12.6708 7.5548 12.75L3.9773 14.8438C3.56355 15.0612 3.07855 14.71 3.1573 14.2487L4.0548 10.0475C4.1223 9.72875 4.0098 9.39875 3.7598 9.18875L0.671048 6.5975C0.336048 6.27125 0.521048 5.70125 0.983548 5.63375L5.0823 5.26625C5.23933 5.25201 5.38966 5.19591 5.51762 5.10379C5.64558 5.01166 5.74648 4.8869 5.8098 4.7425L7.4923 0.905C7.70105 0.485 8.29855 0.485 8.50605 0.90375Z"
      data-figma-gradient-fill="{&#34;type&#34;:&#34;GRADIENT_DIAMOND&#34;,&#34;stops&#34;:[{&#34;color&#34;:{&#34;r&#34;:0.95889502763748169,&#34;g&#34;:0.84951668977737427,&#34;b&#34;:0.36766064167022705,&#34;a&#34;:1.0},&#34;position&#34;:0.0},{&#34;color&#34;:{&#34;r&#34;:0.94850295782089233,&#34;g&#34;:0.74534088373184204,&#34;b&#34;:0.30693858861923218,&#34;a&#34;:1.0},&#34;position&#34;:1.0}],&#34;stopsVar&#34;:[{&#34;color&#34;:{&#34;r&#34;:0.95889502763748169,&#34;g&#34;:0.84951668977737427,&#34;b&#34;:0.36766064167022705,&#34;a&#34;:1.0},&#34;position&#34;:0.0},{&#34;color&#34;:{&#34;r&#34;:0.94850295782089233,&#34;g&#34;:0.74534088373184204,&#34;b&#34;:0.30693858861923218,&#34;a&#34;:1.0},&#34;position&#34;:1.0}],&#34;transform&#34;:{&#34;m00&#34;:-7.0000009536743164,&#34;m01&#34;:-9.4257669448852539,&#34;m02&#34;:16.212884902954102,&#34;m10&#34;:8.9999990463256836,&#34;m11&#34;:-7.3311548233032227,&#34;m12&#34;:7.6655788421630859},&#34;opacity&#34;:1.0,&#34;blendMode&#34;:&#34;NORMAL&#34;,&#34;visible&#34;:true}"
      style="" />
    <path
      d="M8.38648 4.9718L8.10148 2.1443C8.09023 1.9868 8.05773 1.7168 8.31023 1.7168C8.51023 1.7168 8.61898 2.13305 8.61898 2.13305L9.47398 4.40305C9.79648 5.2668 9.66398 5.56305 9.35273 5.73805C8.99523 5.93805 8.46773 5.7818 8.38648 4.9718Z"
      fill="#FFFF8D"
      style="fill:#FFFF8D;fill:color(display-p3 1.0000 1.0000 0.5529);fill-opacity:1;" />
    <path
      d="M11.9061 8.93859L14.3586 7.02484C14.4799 6.92359 14.6986 6.76234 14.5236 6.57859C14.3849 6.43359 14.0099 6.64234 14.0099 6.64234L11.8636 7.48109C11.2236 7.70234 10.7986 8.02984 10.7611 8.44234C10.7124 8.99234 11.2061 9.41609 11.9061 8.93859Z"
      fill="#F49B00"
      style="fill:#F49B00;fill:color(display-p3 0.9569 0.6060 0.0000);fill-opacity:1;" />
  </g>
  <defs>
    <clipPath id="paint0_diamond_3056_239242_clip_path">
      <path
        d="M8.50605 0.90375L10.1885 4.74125C10.2519 4.88565 10.3528 5.01041 10.4807 5.10254C10.6087 5.19466 10.759 5.25076 10.916 5.265L15.0148 5.6325C15.4785 5.7 15.6635 6.26875 15.3273 6.59625L12.2398 9.19C11.9898 9.4 11.876 9.73 11.9448 10.0487L12.8423 14.25C12.921 14.7113 12.4373 15.0638 12.0223 14.845L8.4448 12.75C8.30988 12.6708 8.15626 12.629 7.9998 12.629C7.84334 12.629 7.68971 12.6708 7.5548 12.75L3.9773 14.8438C3.56355 15.0612 3.07855 14.71 3.1573 14.2487L4.0548 10.0475C4.1223 9.72875 4.0098 9.39875 3.7598 9.18875L0.671048 6.5975C0.336048 6.27125 0.521048 5.70125 0.983548 5.63375L5.0823 5.26625C5.23933 5.25201 5.38966 5.19591 5.51762 5.10379C5.64558 5.01166 5.74648 4.8869 5.8098 4.7425L7.4923 0.905C7.70105 0.485 8.29855 0.485 8.50605 0.90375Z" />
    </clipPath>
    <linearGradient id="paint0_diamond_3056_239242" x1="0" y1="0" x2="500" y2="500"
      gradientUnits="userSpaceOnUse">
      <stop stop-color="#F5D95E"
        style="stop-color:#F5D95E;stop-color:color(display-p3 0.9589 0.8495 0.3677);stop-opacity:1;" />
      <stop offset="1" stop-color="#F2BE4E"
        style="stop-color:#F2BE4E;stop-color:color(display-p3 0.9485 0.7453 0.3069);stop-opacity:1;" />
    </linearGradient>
    <clipPath id="clip0_3056_239242">
      <rect width="16" height="16" fill="white" style="fill:white;fill-opacity:1;" />
    </clipPath>
  </defs>
</svg>
  