<svg xmlns="http://www.w3.org/2000/svg" width="41" height="40" viewBox="0 0 41 40" fill="none">
<path d="M24.1265 18.2573C23.6279 18.2573 23.1283 18.0665 22.7479 17.686C21.9858 16.9251 21.9858 15.6898 22.7479 14.9288L27.7901 9.88653C28.5511 9.12555 29.7864 9.12555 30.5474 9.88653C31.3094 10.6475 31.3094 11.8828 30.5474 12.6438L25.5051 17.686C25.1246 18.0665 24.625 18.2573 24.1265 18.2573Z" fill="#38FF9C"/>
<path d="M20.4712 40.0399C9.43171 40.0399 0.450684 31.0589 0.450684 20.0205C0.450684 8.98208 9.43171 0 20.4712 0C31.5106 0 40.4917 8.98103 40.4917 20.0205C40.4917 31.06 31.5106 40.041 20.4712 40.041V40.0399ZM20.4712 3.89975C11.5829 3.89975 4.35044 11.1312 4.35044 20.0205C4.35044 28.9098 11.5818 36.1412 20.4712 36.1412C29.3605 36.1412 36.5919 28.9098 36.5919 20.0205C36.5919 11.1312 29.3595 3.89975 20.4712 3.89975Z" fill="#38FF9C"/>
<path d="M11.7726 30.5719C11.2741 30.5719 10.7745 30.3811 10.394 30.0006C9.633 29.2397 9.63194 28.0044 10.394 27.2434L15.4363 22.2011C16.1972 21.4402 17.4325 21.4391 18.1935 22.2011C18.9545 22.9632 18.9555 24.1974 18.1935 24.9584L13.1512 30.0006C12.7707 30.3811 12.2711 30.5719 11.7726 30.5719Z" fill="#38FF9C"/>
<path d="M20.0348 13.0014C16.5493 13.2512 13.7309 16.0548 13.4948 19.5424C13.4822 19.7311 13.4 19.9092 13.265 20.0431L10.433 22.8794C10.2728 23.0406 9.99558 22.9679 9.93761 22.7476C9.70784 21.8696 9.56555 20.9274 9.56555 19.9904C9.56555 13.9616 14.4698 9.05737 20.4986 9.05737C21.4809 9.05737 22.4337 9.18807 23.3401 9.43154C23.5235 9.48108 23.5836 9.71085 23.4497 9.84576L20.5228 12.7748C20.3921 12.9055 20.2193 12.9866 20.0348 13.0003V13.0014Z" fill="#38FF9C"/>
<path d="M27.6489 19.9192L30.5779 16.9923C30.7117 16.8585 30.9426 16.9185 30.9921 17.1019C31.2366 18.0084 31.3663 18.9612 31.3663 19.9435C31.3663 25.9723 26.4621 30.8765 20.4333 30.8765C19.4973 30.8765 18.555 30.7342 17.676 30.5044C17.4557 30.4465 17.3841 30.1703 17.5443 30.0091L20.3806 27.177C20.5144 27.0431 20.6925 26.9609 20.8812 26.9472C24.3699 26.7111 27.1724 23.8928 27.4222 20.4072C27.4359 20.2228 27.5171 20.0499 27.6478 19.9192H27.6489Z" fill="#38FF9C"/>
</svg>