<?xml version="1.0" encoding="UTF-8"?>
<svg version="1.1" xmlns="http://www.w3.org/2000/svg" width="36" height="32">
<path d="M0 0 C4.9366011 2.29199337 7.39931255 5.26303358 10 10 C10.69730806 12.3243602 11.36912152 14.65673706 12 17 C12.66 17.66 13.32 18.32 14 19 C14.30078125 21.27734375 14.30078125 21.27734375 14.3125 23.9375 C14.32925781 24.81277344 14.34601562 25.68804688 14.36328125 26.58984375 C13.92037664 29.52825393 13.33361061 30.21237817 11 32 C7.26076641 32.64108895 3.47548348 32.46320501 -0.3125 32.4375 C-1.34568359 32.45748047 -2.37886719 32.47746094 -3.44335938 32.49804688 C-9.62801082 32.49407981 -13.30524403 32.13350889 -18 28 C-21.62833663 24.18069828 -22.31000458 21.11720994 -22.5 16 C-22.25156236 9.3087462 -20.3143755 6.19865673 -15.5 1.625 C-10.33499991 -0.77303575 -5.5997712 -0.75381535 0 0 Z " fill="#EE6D4E" transform="translate(22,0)"/>
<path d="M0 0 C4.88511372 2.26808851 7.5585819 5.21106449 10 10 C10.25 13.875 10.25 13.875 10 17 C8.02 16.67 6.04 16.34 4 16 C3.814375 15.0925 3.62875 14.185 3.4375 13.25 C1.41274832 8.67230055 -0.39029615 7.87513377 -5 6 C-7.63276087 6.51953703 -7.63276087 6.51953703 -10 8 C-11.99620166 8.67795528 -13.99538701 9.34733531 -16 10 C-15.91276622 11.77174819 -15.80458345 13.54247377 -15.6875 15.3125 C-15.60048828 16.79169922 -15.60048828 16.79169922 -15.51171875 18.30078125 C-14.94212243 21.30529316 -14.38079214 22.16862143 -12 24 C-10.35394174 25.03357147 -8.69036558 26.04060332 -7 27 C-7.33 24.03 -7.66 21.06 -8 18 C-8.99 17.67 -9.98 17.34 -11 17 C-11 16.01 -11 15.02 -11 14 C-10.0925 14.185625 -9.185 14.37125 -8.25 14.5625 C-5.31685676 14.95734621 -3.7355343 14.94691572 -1 14 C-1 14.99 -1 15.98 -1 17 C-1.99 17 -2.98 17 -4 17 C-4.33 20.3 -4.66 23.6 -5 27 C-4.01 26.67 -3.02 26.34 -2 26 C-1.01 27.65 -0.02 29.3 1 31 C-0.78072742 32.78072742 -3.27643877 32.25615294 -5.6875 32.3125 C-10.98976045 32.25589224 -14.03015738 31.77135049 -18 28 C-21.62833663 24.18069828 -22.31000458 21.11720994 -22.5 16 C-22.25156236 9.3087462 -20.3143755 6.19865673 -15.5 1.625 C-10.33499991 -0.77303575 -5.5997712 -0.75381535 0 0 Z " fill="#FEFBFA" transform="translate(22,0)"/>
<path d="M0 0 C1.80859375 1.81640625 1.80859375 1.81640625 2.3046875 4.19140625 C2.28535156 5.05765625 2.26601563 5.92390625 2.24609375 6.81640625 C2.24480469 7.68265625 2.24351563 8.54890625 2.2421875 9.44140625 C1.80859375 11.81640625 1.80859375 11.81640625 0.59765625 13.60546875 C-1.78172447 15.21596662 -3.39892457 15.21663437 -6.25390625 15.19140625 C-7.13175781 15.19914062 -8.00960938 15.206875 -8.9140625 15.21484375 C-9.66558594 15.08335938 -10.41710937 14.951875 -11.19140625 14.81640625 C-13.65034531 11.12799765 -13.87351465 8.09901086 -13.19140625 3.81640625 C-11.03001038 0.44462869 -9.56834784 -0.08262725 -5.69140625 -1.12109375 C-2.19140625 -1.18359375 -2.19140625 -1.18359375 0 0 Z " fill="#F8F5F3" transform="translate(34.19140625,17.18359375)"/>
<path d="M0 0 C1.97265625 1.1875 1.97265625 1.1875 4 3 C4.49609375 5.375 4.49609375 5.375 4.4375 8 C4.43621094 8.86625 4.43492188 9.7325 4.43359375 10.625 C4 13 4 13 2.796875 14.80078125 C0.36489096 16.42386625 -1.29121834 16.30034214 -4.1875 16.1875 C-5.53908203 16.14689453 -5.53908203 16.14689453 -6.91796875 16.10546875 C-7.60503906 16.07066406 -8.29210937 16.03585938 -9 16 C-9.66 14.35 -10.32 12.7 -11 11 C-10.443125 11.309375 -9.88625 11.61875 -9.3125 11.9375 C-6.81411992 13.08540436 -4.73660292 13.71932278 -2 14 C1.26245502 12.29740953 1.26245502 12.29740953 1.8125 9.0625 C2.32038095 5.82568546 2.32038095 5.82568546 0 3 C0 2.01 0 1.02 0 0 Z " fill="#302C39" transform="translate(32,16)"/>
<path d="M0 0 C1.8125 1.5625 1.8125 1.5625 2.6875 4.9375 C2.85870462 9.90243399 2.85870462 9.90243399 0.8125 12.5625 C-0.1775 12.8925 -1.1675 13.2225 -2.1875 13.5625 C-2.8475 12.9025 -3.5075 12.2425 -4.1875 11.5625 C-3.8575 10.9025 -3.5275 10.2425 -3.1875 9.5625 C-2.5275 9.5625 -1.8675 9.5625 -1.1875 9.5625 C-2.45696514 4.73807816 -2.45696514 4.73807816 -6.1875 1.5625 C-3.86446824 0.06912244 -2.7568469 -0.55136938 0 0 Z " fill="#F8F7F7" transform="translate(32.1875,17.4375)"/>
<path d="M0 0 C1.5 1.25 1.5 1.25 3 3 C3 4.32 3 5.64 3 7 C2.01 7.33 1.02 7.66 0 8 C-0.99 7.34 -1.98 6.68 -3 6 C-3.1875 3.375 -3.1875 3.375 -3 1 C-2.01 0.67 -1.02 0.34 0 0 Z " fill="#F19E59" transform="translate(28,20)"/>
<path d="M0 0 C0.556875 0.309375 1.11375 0.61875 1.6875 0.9375 C4.12540433 2.05761821 6.36224186 2.56037364 9 3 C8.67 3.66 8.34 4.32 8 5 C6.02 5 4.04 5 2 5 C1.34 3.35 0.68 1.7 0 0 Z " fill="#5C5865" transform="translate(21,27)"/>
</svg>
