<?xml version="1.0" encoding="UTF-8"?>
<svg version="1.1" xmlns="http://www.w3.org/2000/svg" width="36" height="32">
<path d="M0 0 C4.9366011 2.29199337 7.39931255 5.26303358 10 10 C10.69730806 12.3243602 11.36912152 14.65673706 12 17 C12.66 17.66 13.32 18.32 14 19 C14.30078125 21.27734375 14.30078125 21.27734375 14.3125 23.9375 C14.32925781 24.81277344 14.34601562 25.68804688 14.36328125 26.58984375 C13.92037664 29.52825393 13.33361061 30.21237817 11 32 C7.26076641 32.64108895 3.47548348 32.46320501 -0.3125 32.4375 C-1.34568359 32.45748047 -2.37886719 32.47746094 -3.44335938 32.49804688 C-9.62801082 32.49407981 -13.30524403 32.13350889 -18 28 C-21.62833663 24.18069828 -22.31000458 21.11720994 -22.5 16 C-22.25156236 9.3087462 -20.3143755 6.19865673 -15.5 1.625 C-10.33499991 -0.77303575 -5.5997712 -0.75381535 0 0 Z " fill="#FEFBFA" transform="translate(22,0)"/>
<path d="M0 0 C0.763125 0.515625 1.52625 1.03125 2.3125 1.5625 C3.405625 2.160625 4.49875 2.75875 5.625 3.375 C8.3125 5.5625 8.3125 5.5625 9 8 C8.05204496 11.53328696 5.9053892 13.03134625 3.3125 15.5625 C1.97686389 18.72951423 1.97686389 18.72951423 1.3125 21.5625 C0.6525 21.5625 -0.0075 21.5625 -0.6875 21.5625 C-0.8125 13.8125 -0.8125 13.8125 0.3125 11.5625 C1.3025 11.5625 2.2925 11.5625 3.3125 11.5625 C3.3125 10.5725 3.3125 9.5825 3.3125 8.5625 C2.405 8.93375 1.4975 9.305 0.5625 9.6875 C-2.6875 10.5625 -2.6875 10.5625 -5.0625 9.6875 C-5.59875 9.31625 -6.135 8.945 -6.6875 8.5625 C-6.6875 9.5525 -6.6875 10.5425 -6.6875 11.5625 C-5.3675 11.8925 -4.0475 12.2225 -2.6875 12.5625 C-2.6875 15.5325 -2.6875 18.5025 -2.6875 21.5625 C-6.64429173 20.24356942 -9.36202229 19.09378096 -11.6875 15.5625 C-12.02296893 11.87234179 -11.91681633 8.25704091 -11.6875 4.5625 C-3.72581035 -0.60652727 -3.72581035 -0.60652727 0 0 Z " fill="#FE714D" transform="translate(17.6875,5.4375)"/>
<path d="M0 0 C1.71875 1.21875 1.71875 1.21875 3 3 C3.3984375 5.375 3.3984375 5.375 3.375 8 C3.38273437 8.86625 3.39046875 9.7325 3.3984375 10.625 C3 13 3 13 1.7890625 14.78125 C-1.72780492 17.17701995 -5.94695285 16.72327104 -10 16 C-12.61940657 13.38059343 -12.89840525 11.60956853 -13.5 8 C-13 5 -13 5 -11 2.125 C-6.88768289 -0.78789129 -4.96025717 -0.64003318 0 0 Z " fill="#4697E1" transform="translate(33,16)"/>
<path d="M0 0 C0.66 0 1.32 0 2 0 C3.61949011 2.57213134 4.04408751 3.67669159 3.625 6.75 C3.41875 7.4925 3.2125 8.235 3 9 C1.68 9 0.36 9 -1 9 C-1.80967438 6.08517222 -2.21845993 4.53886783 -1.0625 1.6875 C-0.711875 1.130625 -0.36125 0.57375 0 0 Z " fill="#EDF6FD" transform="translate(27,19)"/>
</svg>
