<?xml version="1.0" encoding="UTF-8"?>
<svg version="1.1" xmlns="http://www.w3.org/2000/svg" width="24" height="24">
<path d="M0 0 C3.12578143 1.6720747 5.39281175 3.7856235 7 7 C7.51512617 11.09157355 7.94367269 15.23589546 5.953125 18.95703125 C3.55501226 21.85592636 1.60351712 23.79811835 -2.171875 24.2734375 C-9.98876369 24.58137554 -9.98876369 24.58137554 -13.5625 21.625 C-17.3057723 17.59378368 -17.39037018 14.90519941 -17.359375 9.55078125 C-16.78039966 5.44131496 -15.00085071 3.78650423 -12 1 C-8.27533151 -0.86233425 -4.05504687 -0.57130829 0 0 Z " fill="#FFF8F7" transform="translate(17,0)"/>
<path d="M0 0 C0.763125 0.45375 1.52625 0.9075 2.3125 1.375 C3.6325 2.035 4.9525 2.695 6.3125 3.375 C6.3125 7.005 6.3125 10.635 6.3125 14.375 C4.0025 15.695 1.6925 17.015 -0.6875 18.375 C-0.6875 15.735 -0.6875 13.095 -0.6875 10.375 C0.3025 10.045 1.2925 9.715 2.3125 9.375 C2.3125 8.715 2.3125 8.055 2.3125 7.375 C1.1678125 7.6534375 1.1678125 7.6534375 0 7.9375 C-2.6875 8.375 -2.6875 8.375 -5.6875 7.375 C-5.6875 8.035 -5.6875 8.695 -5.6875 9.375 C-4.6975 9.705 -3.7075 10.035 -2.6875 10.375 C-2.6875 13.015 -2.6875 15.655 -2.6875 18.375 C-6.1525 16.395 -6.1525 16.395 -9.6875 14.375 C-9.6875 10.745 -9.6875 7.115 -9.6875 3.375 C-3.42887931 -0.79741379 -3.42887931 -0.79741379 0 0 Z " fill="#FF714D" transform="translate(13.6875,2.625)"/>
</svg>
