<?xml version="1.0" encoding="UTF-8"?>
<svg version="1.1" xmlns="http://www.w3.org/2000/svg" width="36" height="32">
<path d="M0 0 C4.88511372 2.26808851 7.5585819 5.21106449 10 10 C10.25 13.875 10.25 13.875 10 17 C10.99 17.33 11.98 17.66 13 18 C14.56471233 21.12942465 14.69701958 24.61082223 14 28 C12.66015625 30.2265625 12.66015625 30.2265625 10 32 C6.36716908 32.59909436 2.79901028 32.55748126 -0.875 32.5 C-2.34646484 32.52320312 -2.34646484 32.52320312 -3.84765625 32.546875 C-9.89182479 32.51424791 -13.39314074 31.99065515 -18 28 C-21.62833663 24.18069828 -22.31000458 21.11720994 -22.5 16 C-22.25156236 9.3087462 -20.3143755 6.19865673 -15.5 1.625 C-10.33499991 -0.77303575 -5.5997712 -0.75381535 0 0 Z " fill="#FEFBFA" transform="translate(22,0)"/>
<path d="M0 0 C0.763125 0.515625 1.52625 1.03125 2.3125 1.5625 C3.405625 2.160625 4.49875 2.75875 5.625 3.375 C8.3125 5.5625 8.3125 5.5625 9 8 C8.05204496 11.53328696 5.9053892 13.03134625 3.3125 15.5625 C1.97686389 18.72951423 1.97686389 18.72951423 1.3125 21.5625 C0.6525 21.5625 -0.0075 21.5625 -0.6875 21.5625 C-0.8125 13.8125 -0.8125 13.8125 0.3125 11.5625 C1.3025 11.5625 2.2925 11.5625 3.3125 11.5625 C3.3125 10.5725 3.3125 9.5825 3.3125 8.5625 C2.405 8.93375 1.4975 9.305 0.5625 9.6875 C-2.6875 10.5625 -2.6875 10.5625 -5.0625 9.6875 C-5.59875 9.31625 -6.135 8.945 -6.6875 8.5625 C-6.6875 9.5525 -6.6875 10.5425 -6.6875 11.5625 C-5.3675 11.8925 -4.0475 12.2225 -2.6875 12.5625 C-2.6875 15.5325 -2.6875 18.5025 -2.6875 21.5625 C-6.64429173 20.24356942 -9.36202229 19.09378096 -11.6875 15.5625 C-12.02296893 11.87234179 -11.91681633 8.25704091 -11.6875 4.5625 C-3.72581035 -0.60652727 -3.72581035 -0.60652727 0 0 Z " fill="#FE714D" transform="translate(17.6875,5.4375)"/>
<path d="M0 0 C1.98828125 0.6875 1.98828125 0.6875 3.98828125 3.6875 C4.6458155 10.59160959 4.6458155 10.59160959 2.48828125 14.1875 C-1.03066193 16.29886591 -4.01278606 16.62987143 -8.01171875 15.6875 C-11.00269179 13.14517292 -11.85374432 11.5300303 -12.57421875 7.6875 C-12.01171875 4.6875 -12.01171875 4.6875 -10.07421875 1.75 C-6.27927868 -0.80577597 -4.38879023 -0.59008944 0 0 Z " fill="#2B74C4" transform="translate(32.01171875,16.3125)"/>
<path d="M0 0 C3 1 3 1 4.6875 3.25 C6.06511203 6.1364252 6.26985151 7.85173236 6 11 C5.01 11.495 5.01 11.495 4 12 C3.67 11.01 3.34 10.02 3 9 C1.68 10.65 0.36 12.3 -1 14 C-4.875 12.125 -4.875 12.125 -6 11 C-5.83895949 6.73242656 -5.61172556 4.64392164 -2.625 1.5 C-1.75875 1.005 -0.8925 0.51 0 0 Z " fill="#77A7DD" transform="translate(28,16)"/>
<path d="M0 0 C2.4375 0.375 2.4375 0.375 5 1 C6.59387042 4.18774083 6.52663137 7.53927959 6 11 C4 13.5 4 13.5 2 15 C1.34 14.34 0.68 13.68 0 13 C0.515625 12.649375 1.03125 12.29875 1.5625 11.9375 C3.3695854 9.93236739 3.3695854 9.93236739 2.8125 6.5 C2.19629245 2.91290967 2.19629245 2.91290967 0 0 Z " fill="#2165AE" transform="translate(30,17)"/>
<path d="M0 0 C0.66 1.32 1.32 2.64 2 4 C3.32 3.67 4.64 3.34 6 3 C5.34 2.67 4.68 2.34 4 2 C4.33 1.34 4.66 0.68 5 0 C5.99 0.66 6.98 1.32 8 2 C7.75 3.875 7.75 3.875 7 6 C4.9375 7.25 4.9375 7.25 3 8 C1.5 6.8125 1.5 6.8125 0 5 C-0.1875 2.3125 -0.1875 2.3125 0 0 Z " fill="#B5D0ED" transform="translate(22,22)"/>
<path d="M0 0 C0.99 0.66 1.98 1.32 3 2 C2.34 3.98 1.68 5.96 1 8 C-0.65 8 -2.3 8 -4 8 C-4 6.68 -4 5.36 -4 4 C-3.01 3.67 -2.02 3.34 -1 3 C-0.67 2.01 -0.34 1.02 0 0 Z " fill="#3C83D0" transform="translate(30,24)"/>
<path d="M0 0 C1.32 0 2.64 0 4 0 C4.33 2.31 4.66 4.62 5 7 C4.01 7.495 4.01 7.495 3 8 C2.67 7.01 2.34 6.02 2 5 C0.00334686 3.31461399 0.00334686 3.31461399 -2 2 C-1.34 2 -0.68 2 0 2 C0 1.34 0 0.68 0 0 Z " fill="#74A6DC" transform="translate(29,20)"/>
<path d="M0 0 C0.99 0.33 1.98 0.66 3 1 C1.35 2.65 -0.3 4.3 -2 6 C-2.99 5.67 -3.98 5.34 -5 5 C-3.35 3.35 -1.7 1.7 0 0 Z " fill="#3B78C3" transform="translate(25,16)"/>
<path d="M0 0 C0.33 0.99 0.66 1.98 1 3 C1.99 3.33 2.98 3.66 4 4 C3.01 4.495 3.01 4.495 2 5 C1.34 4.67 0.68 4.34 0 4 C-0.33 4.66 -0.66 5.32 -1 6 C-1.33 4.35 -1.66 2.7 -2 1 C-1.34 0.67 -0.68 0.34 0 0 Z " fill="#2875CA" transform="translate(25,21)"/>
</svg>
