<?xml version="1.0" encoding="UTF-8"?>
<svg version="1.1" xmlns="http://www.w3.org/2000/svg" width="36" height="32">
<path d="M0 0 C4.88511372 2.26808851 7.5585819 5.21106449 10 10 C10.25 13.875 10.25 13.875 10 17 C10.99 17.33 11.98 17.66 13 18 C14.5121867 21.02437339 14.17263369 23.66241534 14 27 C12.98263229 29.76142665 12.63829259 30.68085371 10 32 C6.42326778 32.29427268 2.83742408 32.27800554 -0.75 32.3125 C-1.74 32.34150391 -2.73 32.37050781 -3.75 32.40039062 C-9.86636369 32.45354084 -13.34463896 32.0678634 -18 28 C-21.62833663 24.18069828 -22.31000458 21.11720994 -22.5 16 C-22.25156236 9.3087462 -20.3143755 6.19865673 -15.5 1.625 C-10.33499991 -0.77303575 -5.5997712 -0.75381535 0 0 Z " fill="#FDFAF9" transform="translate(22,0)"/>
<path d="M0 0 C0.763125 0.515625 1.52625 1.03125 2.3125 1.5625 C3.405625 2.160625 4.49875 2.75875 5.625 3.375 C8.3125 5.5625 8.3125 5.5625 9 8 C8.05204496 11.53328696 5.9053892 13.03134625 3.3125 15.5625 C1.97686389 18.72951423 1.97686389 18.72951423 1.3125 21.5625 C0.6525 21.5625 -0.0075 21.5625 -0.6875 21.5625 C-0.8125 13.8125 -0.8125 13.8125 0.3125 11.5625 C1.3025 11.5625 2.2925 11.5625 3.3125 11.5625 C3.3125 10.5725 3.3125 9.5825 3.3125 8.5625 C2.405 8.93375 1.4975 9.305 0.5625 9.6875 C-2.6875 10.5625 -2.6875 10.5625 -5.0625 9.6875 C-5.59875 9.31625 -6.135 8.945 -6.6875 8.5625 C-6.6875 9.5525 -6.6875 10.5425 -6.6875 11.5625 C-5.3675 11.8925 -4.0475 12.2225 -2.6875 12.5625 C-2.6875 15.5325 -2.6875 18.5025 -2.6875 21.5625 C-6.64429173 20.24356942 -9.36202229 19.09378096 -11.6875 15.5625 C-12.02296893 11.87234179 -11.91681633 8.25704091 -11.6875 4.5625 C-3.72581035 -0.60652727 -3.72581035 -0.60652727 0 0 Z " fill="#FE714E" transform="translate(17.6875,5.4375)"/>
<path d="M0 0 C2 1.8125 2 1.8125 4 4 C4 4.99 4 5.98 4 7 C4.66 7.33 5.32 7.66 6 8 C3.75 9.125 3.75 9.125 1 10 C-1.3125 9.125 -1.3125 9.125 -3 8 C-3 7.34 -3 6.68 -3 6 C-2.34 6 -1.68 6 -1 6 C-1 6.66 -1 7.32 -1 8 C-0.34 7.67 0.32 7.34 1 7 C1 6.01 1 5.02 1 4 C0.34 3.67 -0.32 3.34 -1 3 C-0.67 2.01 -0.34 1.02 0 0 Z " fill="#5D8AE5" transform="translate(29,22)"/>
<path d="M0 0 C0.66 0 1.32 0 2 0 C2 0.66 2 1.32 2 2 C3.65 2 5.3 2 7 2 C6.34 2.66 5.68 3.32 5 4 C4.01 3.67 3.02 3.34 2 3 C2.33 4.98 2.66 6.96 3 9 C2.01 8.67 1.02 8.34 0 8 C0 6.35 0 4.7 0 3 C-0.66 2.67 -1.32 2.34 -2 2 C-1.34 2 -0.68 2 0 2 C0 1.34 0 0.68 0 0 Z " fill="#2E72FF" transform="translate(25,18)"/>
</svg>
