<?xml version="1.0" encoding="UTF-8"?>
<svg version="1.1" xmlns="http://www.w3.org/2000/svg" width="64" height="64">
<path d="M0 0 C6.7175723 4.21331831 12.69231703 10.79148997 15.625 18.21484375 C17.52494883 26.87148562 18.08125268 38.19630204 13.6328125 46.11328125 C8.48039719 53.37614916 3.18160897 59.80802382 -5.75 62.0625 C-14.95864167 63.20454819 -25.59155171 63.83082887 -33.7109375 58.73828125 C-40.58244848 53.09100498 -46.97147778 46.20995957 -47.96875 37.05419922 C-48.79673812 25.15445751 -47.74325055 16.76591617 -40.125 7.3125 C-30.06185241 -3.13487686 -13.51885447 -6.02470688 0 0 Z " fill="#2CA049" transform="translate(47.75,1.9375)"/>
<path d="M0 0 C3.06303578 -0.08115993 6.12390815 -0.14057409 9.1875 -0.1875 C10.48397461 -0.22520508 10.48397461 -0.22520508 11.80664062 -0.26367188 C16.62389029 -0.31904256 20.20466341 -0.35563296 24 3 C24.5625 6.375 24.5625 6.375 24 10 C22.9790625 11.175625 22.9790625 11.175625 21.9375 12.375 C19.75104959 14.73551634 19.75104959 14.73551634 20.16796875 17.0625 C20.31878906 17.825625 20.46960937 18.58875 20.625 19.375 C21.11564425 22.25152215 21.26715402 23.51112632 19.8515625 26.1015625 C17.34536017 29.07232917 15.74149952 30.75283349 12 32 C10.44578271 32.08106686 8.88832973 32.10756898 7.33203125 32.09765625 C6.43935547 32.09443359 5.54667969 32.09121094 4.62695312 32.08789062 C3.23379883 32.07532227 3.23379883 32.07532227 1.8125 32.0625 C0.40194336 32.05573242 0.40194336 32.05573242 -1.03710938 32.04882812 C-3.35813712 32.03704626 -5.67903644 32.02059558 -8 32 C-7.69147815 30.041036 -7.3780582 28.08284287 -7.0625 26.125 C-6.88847656 25.03445312 -6.71445312 23.94390625 -6.53515625 22.8203125 C-6 20 -6 20 -5 18 C-7.31 18 -9.62 18 -12 18 C-12 16.35 -12 14.7 -12 13 C-9.03 13 -6.06 13 -3 13 C-2.87625 12.154375 -2.7525 11.30875 -2.625 10.4375 C-1.97626617 6.86946394 -1.01748408 3.478472 0 0 Z " fill="#E7F3F4" transform="translate(25,15)"/>
<path d="M0 0 C8.37345804 3.43909884 14.07077911 9.0148091 18.5 16.9375 C21.68296032 24.9943683 21.68296032 37.0056317 18.5 45.0625 C13.83149322 53.3711362 7.29447524 60.23201029 -2 63 C-5.71412906 63.35776148 -9.28532228 63.31779562 -13 63 C-12.44054687 62.731875 -11.88109375 62.46375 -11.3046875 62.1875 C-2.6409622 57.72347883 2.72279161 52.78102384 7 44 C7.32742187 43.34515625 7.65484375 42.6903125 7.9921875 42.015625 C11.61576154 34.21631327 12.46880013 24.5022927 10.24609375 16.17578125 C7.97567893 10.2192812 5.40201143 5.60134096 0 2 C0 1.34 0 0.68 0 0 Z " fill="#33C658" transform="translate(44,1)"/>
<path d="M0 0 C0 0.33 0 0.66 0 1 C-0.556875 1.07476562 -1.11375 1.14953125 -1.6875 1.2265625 C-9.261437 2.53153137 -14.1904287 5.41343303 -18.94921875 11.48828125 C-25.68030504 21.4649647 -28.29140238 30.95658458 -27 43 C-25.27857598 50.44977853 -21.95551715 56.23508172 -17 62 C-24.12914502 59.99492796 -29.39304693 54.5478253 -32.9375 48.25 C-37.23917149 39.90913188 -37.34033335 29.27480901 -35.38671875 20.12890625 C-31.97295481 11.69224734 -25.11831978 4.55788965 -16.875 0.796875 C-11.33143164 -0.73965754 -5.69346753 -0.36917297 0 0 Z " fill="#33C658" transform="translate(36,0)"/>
<path d="M0 0 C3.3 0 6.6 0 10 0 C10.33 1.32 10.66 2.64 11 4 C9 6 9 6 6.6171875 6.1953125 C5.71226563 6.17210937 4.80734375 6.14890625 3.875 6.125 C2.50988281 6.09792969 2.50988281 6.09792969 1.1171875 6.0703125 C0.41851563 6.04710937 -0.28015625 6.02390625 -1 6 C-0.67 4.02 -0.34 2.04 0 0 Z " fill="#3DA757" transform="translate(28,33)"/>
<path d="M0 0 C1.23556641 0.01740234 1.23556641 0.01740234 2.49609375 0.03515625 C3.32238281 0.04417969 4.14867187 0.05320312 5 0.0625 C5.63808594 0.07410156 6.27617188 0.08570312 6.93359375 0.09765625 C7.26359375 1.74765625 7.59359375 3.39765625 7.93359375 5.09765625 C5.52813737 6.30038444 3.98362422 6.19837097 1.30859375 6.16015625 C0.08269531 6.14662109 0.08269531 6.14662109 -1.16796875 6.1328125 C-2.10769531 6.11541016 -2.10769531 6.11541016 -3.06640625 6.09765625 C-3.10912725 4.4315372 -3.10704457 2.7638274 -3.06640625 1.09765625 C-2.06640625 0.09765625 -2.06640625 0.09765625 0 0 Z " fill="#3DA757" transform="translate(33.06640625,21.90234375)"/>
</svg>
