<svg width="379" height="369" viewBox="0 0 379 369" fill="none" xmlns="http://www.w3.org/2000/svg">
<path d="M374.377 184.5C374.377 82.6035 291.604 0 189.499 0C87.3938 0 4.62109 82.6035 4.62109 184.5C4.62109 286.397 87.3938 369 189.499 369C291.604 369 374.377 286.397 374.377 184.5Z" fill="url(#paint0_radial_5214_168)"/>
<path d="M374.377 184.5C374.377 82.6035 291.604 0 189.499 0C87.3938 0 4.62109 82.6035 4.62109 184.5C4.62109 286.397 87.3938 369 189.499 369C291.604 369 374.377 286.397 374.377 184.5Z" fill="url(#paint1_radial_5214_168)"/>
<path d="M374.377 184.5C374.377 82.6035 291.604 0 189.499 0C87.3938 0 4.62109 82.6035 4.62109 184.5C4.62109 286.397 87.3938 369 189.499 369C291.604 369 374.377 286.397 374.377 184.5Z" fill="url(#paint2_radial_5214_168)"/>
<path fill-rule="evenodd" clip-rule="evenodd" d="M130.832 98.1291C129.558 98.3385 128.56 99.2703 128.227 100.561C127.876 101.923 127.881 124.225 128.232 125.431C128.508 126.378 129.093 127.025 130.162 127.565L130.9 127.939H165.897H200.895L201.768 127.523C202.826 127.021 203.015 126.816 203.502 125.654L203.881 124.75V112.964C203.881 100.078 203.938 101.086 203.109 99.4502C202.876 98.9908 201.584 98.2094 200.861 98.0904C200.123 97.9686 131.579 98.0064 130.832 98.1291ZM130.378 170.984C129.399 171.204 128.538 172.069 128.242 173.129C127.832 174.604 127.87 269.449 128.282 270.803C128.608 271.87 128.934 272.267 129.978 272.863L130.727 273.291H192.739H254.751L255.278 272.977C257.334 271.753 257.226 272.586 257.197 257.969C257.169 243.915 257.305 244.969 255.368 243.844L254.64 243.421L206.315 243.348C163.572 243.284 157.975 243.25 157.853 243.058C157.766 242.922 157.727 234.976 157.748 221.997L157.782 201.155L158.194 200.849L158.605 200.542L193.52 200.469C225.738 200.402 228.463 200.378 228.794 200.156C229.643 199.583 230.069 199.044 230.299 198.255C230.687 196.921 230.654 174.115 230.261 172.977C229.977 172.153 229.305 171.352 228.653 171.059C228.176 170.845 131.326 170.77 130.378 170.984Z" fill="#F9F9F9" stroke="white" stroke-width="0.5"/>
<defs>
<radialGradient id="paint0_radial_5214_168" cx="0" cy="0" r="1" gradientUnits="userSpaceOnUse" gradientTransform="translate(164.078 -33.4406) rotate(82.184) scale(424.837 425.676)">
<stop stop-color="#D9326F"/>
<stop offset="1" stop-color="#3A34DD"/>
</radialGradient>
<radialGradient id="paint1_radial_5214_168" cx="0" cy="0" r="1" gradientUnits="userSpaceOnUse" gradientTransform="translate(189.499 -140.681) rotate(86.8856) scale(510.435 511.475)">
<stop stop-color="#FE4D8B"/>
<stop offset="1" stop-color="#483FFC"/>
</radialGradient>
<radialGradient id="paint2_radial_5214_168" cx="0" cy="0" r="1" gradientUnits="userSpaceOnUse" gradientTransform="translate(189.499) rotate(90) scale(239.85 240.341)">
<stop stop-color="#628CBF"/>
<stop offset="1" stop-color="#1D507D"/>
</radialGradient>
</defs>
</svg>
