<?xml version="1.0" encoding="UTF-8"?>
<svg version="1.1" xmlns="http://www.w3.org/2000/svg" width="250" height="250">
<path d="M0 0 C0.78632813 0.28407715 1.57265625 0.5681543 2.3828125 0.86083984 C18.58245883 6.79106752 32.53486141 15.04649023 45 27 C46.18125215 27.96602401 47.36828079 28.9250529 48.5625 29.875 C64.8088478 43.80044097 76.60831932 66.71336382 82 87 C82.26039063 87.96800537 82.52078125 88.93601074 82.7890625 89.93334961 C85.20012129 99.85385193 85.55951249 109.39542619 85.5 119.5625 C85.49757294 120.40038055 85.49514587 121.23826111 85.49264526 122.10153198 C85.41866381 135.27949857 84.58154002 147.52375932 80 160 C79.68353516 160.87350098 79.36707031 161.74700195 79.04101562 162.64697266 C67.00485357 194.89815545 43.8591754 220.17249148 12.80859375 235.0703125 C8.62201144 236.9665646 4.35023013 238.52483879 0 240 C-1.06855225 240.38309326 -1.06855225 240.38309326 -2.15869141 240.77392578 C-25.18346562 248.72422988 -57.22086496 248.69122684 -80 240 C-80.78632812 239.71592285 -81.57265625 239.4318457 -82.3828125 239.13916016 C-98.58245883 233.20893248 -112.53486141 224.95350977 -125 213 C-126.18125215 212.03397599 -127.36828079 211.0749471 -128.5625 210.125 C-144.8088478 196.19955903 -156.60831932 173.28663618 -162 153 C-162.26039063 152.03199463 -162.52078125 151.06398926 -162.7890625 150.06665039 C-165.20012129 140.14614807 -165.55951249 130.60457381 -165.5 120.4375 C-165.49757294 119.59961945 -165.49514587 118.76173889 -165.49264526 117.89846802 C-165.41866381 104.72050143 -164.58154002 92.47624068 -160 80 C-159.68353516 79.12649902 -159.36707031 78.25299805 -159.04101562 77.35302734 C-147.00485357 45.10184455 -123.8591754 19.82750852 -92.80859375 4.9296875 C-88.62201144 3.0334354 -84.35023013 1.47516121 -80 0 C-78.93144775 -0.38309326 -78.93144775 -0.38309326 -77.84130859 -0.77392578 C-54.81653438 -8.72422988 -22.77913504 -8.69122684 0 0 Z " fill="#19C0E4" transform="translate(165,5)"/>
<path d="M0 0 C40.92 0 81.84 0 124 0 C124 8.25 124 16.5 124 25 C107.5 25 91 25 74 25 C74 53.71 74 82.42 74 112 C66.08 112 58.16 112 50 112 C50 83.29 50 54.58 50 25 C33.5 25 17 25 0 25 C0 16.75 0 8.5 0 0 Z " fill="#FDFEFE" transform="translate(63,69)"/>
<path d="M0 0 C7.92 0 15.84 0 24 0 C24 24.42 24 48.84 24 74 C16.08 74 8.16 74 0 74 C0 49.58 0 25.16 0 0 Z " fill="#FEFEFE" transform="translate(163,107)"/>
<path d="M0 0 C7.92 0 15.84 0 24 0 C24 24.42 24 48.84 24 74 C16.08 74 8.16 74 0 74 C0 49.58 0 25.16 0 0 Z " fill="#FEFEFE" transform="translate(63,107)"/>
</svg>
